####
#
# OBJ File Generated by Meshlab
#
####
# Object franka_pad2.obj
#
# Vertices: 590
# Faces: 1184
#
####
v 11.000000 55.000000 0.000000
v 11.297513 60.108089 15.000000
v 11.297513 60.108089 0.000000
v 12.186025 65.147095 15.000000
v 12.186025 65.147095 0.000000
v 13.653524 70.048889 15.000000
v 13.653524 70.048889 0.000000
v 15.680164 74.747162 15.000000
v 15.680164 74.747162 0.000000
v 18.238537 79.178398 15.000000
v 18.238537 79.178398 0.000000
v 21.294043 83.282654 15.000000
v 21.294043 83.282654 0.000000
v 24.805367 87.004440 15.000000
v 24.805367 87.004440 0.000000
v 28.725023 90.293419 15.000000
v 28.725023 90.293419 0.000000
v 33.000000 93.105118 15.000000
v 33.000000 93.105118 0.000000
v 37.572491 95.401505 15.000000
v 37.572491 95.401505 0.000000
v 42.380657 97.151535 15.000000
v 42.380657 97.151535 0.000000
v 47.359482 98.331543 15.000000
v 47.359482 98.331543 0.000000
v 52.441628 98.925560 15.000000
v 52.441628 98.925560 0.000000
v 57.558372 98.925560 15.000000
v 57.558372 98.925560 0.000000
v 62.640518 98.331543 15.000000
v 62.640518 98.331543 0.000000
v 67.619339 97.151535 15.000000
v 67.619339 97.151535 0.000000
v 72.427513 95.401505 15.000000
v 72.427513 95.401505 0.000000
v 77.000000 93.105118 15.000000
v 77.000000 93.105118 0.000000
v 81.274979 90.293419 15.000000
v 81.274979 90.293419 0.000000
v 85.194633 87.004440 15.000000
v 85.194633 87.004440 0.000000
v 88.705956 83.282654 15.000000
v 88.705956 83.282654 0.000000
v 91.761459 79.178398 15.000000
v 91.761459 79.178398 0.000000
v 94.319832 74.747162 15.000000
v 94.319832 74.747162 0.000000
v 96.346474 70.048889 15.000000
v 96.346474 70.048889 0.000000
v 97.813972 65.147095 15.000000
v 97.813972 65.147095 0.000000
v 98.702484 60.108089 15.000000
v 98.702484 60.108089 0.000000
v 99.000000 55.000000 15.000000
v 99.000000 55.000000 0.000000
v 98.702484 49.891911 15.000000
v 98.702484 49.891911 0.000000
v 97.813972 44.852901 15.000000
v 97.813972 44.852901 0.000000
v 96.346474 39.951115 15.000000
v 96.346474 39.951115 0.000000
v 94.319832 35.252834 15.000000
v 94.319832 35.252834 0.000000
v 91.761459 30.821604 15.000000
v 91.761459 30.821604 0.000000
v 88.705956 26.717344 15.000000
v 88.705956 26.717344 0.000000
v 85.194633 22.995558 15.000000
v 85.194633 22.995558 0.000000
v 81.274979 19.706581 15.000000
v 81.274979 19.706581 0.000000
v 77.000000 16.894880 15.000000
v 77.000000 16.894880 0.000000
v 72.427513 14.598493 15.000000
v 72.427513 14.598493 0.000000
v 67.619339 12.848463 15.000000
v 67.619339 12.848463 0.000000
v 62.640518 11.668459 15.000000
v 62.640518 11.668459 0.000000
v 57.558372 11.074443 15.000000
v 57.558372 11.074443 0.000000
v 52.441628 11.074443 15.000000
v 52.441628 11.074443 0.000000
v 47.359482 11.668459 15.000000
v 47.359482 11.668459 0.000000
v 42.380657 12.848463 15.000000
v 42.380657 12.848463 0.000000
v 37.572491 14.598493 15.000000
v 37.572491 14.598493 0.000000
v 33.000000 16.894880 15.000000
v 33.000000 16.894880 0.000000
v 28.725023 19.706581 15.000000
v 28.725023 19.706581 0.000000
v 24.805367 22.995558 15.000000
v 24.805367 22.995558 0.000000
v 21.294043 26.717344 15.000000
v 21.294043 26.717344 0.000000
v 18.238537 30.821604 15.000000
v 18.238537 30.821604 0.000000
v 15.680164 35.252834 15.000000
v 15.680164 35.252834 0.000000
v 13.653524 39.951115 15.000000
v 13.653524 39.951115 0.000000
v 12.186025 44.852901 15.000000
v 12.186025 44.852901 0.000000
v 11.297513 49.891911 15.000000
v 11.297513 49.891911 0.000000
v 11.000000 55.000000 15.000000
v 72.756714 82.815445 0.000000
v 76.305717 80.200523 0.000000
v 79.474518 77.135895 0.000000
v 82.206573 73.676254 0.000000
v 84.453117 69.883331 0.000000
v 86.174080 65.824821 0.000000
v 87.338737 61.573135 0.000000
v 87.926308 57.204155 0.000000
v 51.696842 22.165731 0.000000
v 47.349934 22.898964 0.000000
v 43.139542 24.205040 0.000000
v 39.140800 26.060652 0.000000
v 35.425068 28.432688 0.000000
v 32.058647 31.278818 0.000000
v 29.101620 34.548252 0.000000
v 26.606749 38.182652 0.000000
v 87.926308 52.795841 0.000000
v 87.338737 48.426861 0.000000
v 86.174080 44.175179 0.000000
v 84.453117 40.116665 0.000000
v 82.206573 36.323746 0.000000
v 79.474518 32.864101 0.000000
v 76.305717 29.799479 0.000000
v 24.618553 42.117153 0.000000
v 23.172516 46.281551 0.000000
v 22.294443 50.601532 0.000000
v 22.000000 55.000000 0.000000
v 22.294443 59.398468 0.000000
v 23.172516 63.718449 0.000000
v 24.618553 67.882843 0.000000
v 72.756714 27.184555 0.000000
v 68.890846 25.066000 0.000000
v 64.777092 23.481619 0.000000
v 60.488869 22.459682 0.000000
v 56.102695 22.018429 0.000000
v 47.349934 87.101036 0.000000
v 51.696842 87.834267 0.000000
v 56.102695 87.981567 0.000000
v 60.488869 87.540314 0.000000
v 64.777092 86.518379 0.000000
v 68.890846 84.933998 0.000000
v 26.606749 71.817352 0.000000
v 29.101620 75.451744 0.000000
v 32.058647 78.721184 0.000000
v 35.425068 81.567314 0.000000
v 39.140800 83.939346 0.000000
v 43.139542 85.794960 0.000000
v 22.000000 55.000000 9.000000
v 22.294443 59.398468 9.000000
v 23.172516 63.718449 9.000000
v 24.618553 67.882843 9.000000
v 26.606749 71.817352 9.000000
v 29.101620 75.451744 9.000000
v 32.058647 78.721184 9.000000
v 35.425068 81.567314 9.000000
v 39.140800 83.939346 9.000000
v 43.139542 85.794960 9.000000
v 47.349934 87.101036 9.000000
v 51.696842 87.834267 9.000000
v 56.102695 87.981567 9.000000
v 60.488869 87.540314 9.000000
v 64.777092 86.518379 9.000000
v 68.890846 84.933998 9.000000
v 72.756714 82.815445 9.000000
v 76.305717 80.200523 9.000000
v 79.474518 77.135895 9.000000
v 82.206573 73.676254 9.000000
v 84.453117 69.883331 9.000000
v 86.174080 65.824821 9.000000
v 87.338737 61.573135 9.000000
v 87.926308 57.204155 9.000000
v 87.926308 52.795841 9.000000
v 87.338737 48.426861 9.000000
v 86.174080 44.175179 9.000000
v 84.453117 40.116665 9.000000
v 82.206573 36.323746 9.000000
v 79.474518 32.864101 9.000000
v 76.305717 29.799479 9.000000
v 72.756714 27.184555 9.000000
v 68.890846 25.066000 9.000000
v 64.777092 23.481619 9.000000
v 60.488869 22.459682 9.000000
v 56.102695 22.018429 9.000000
v 51.696842 22.165731 9.000000
v 47.349934 22.898964 9.000000
v 43.139542 24.205040 9.000000
v 39.140800 26.060652 9.000000
v 35.425068 28.432688 9.000000
v 32.058647 31.278818 9.000000
v 29.101620 34.548252 9.000000
v 26.606749 38.182652 9.000000
v 24.618553 42.117153 9.000000
v 23.172516 46.281551 9.000000
v 22.294443 50.601532 9.000000
v 53.506603 84.876450 9.000000
v 52.703960 84.553925 9.000000
v 51.967369 34.100384 9.000000
v 52.703960 34.553921 9.000000
v 51.967369 84.100388 9.000000
v 51.318024 83.528885 9.000000
v 56.074463 25.014467 9.000000
v 56.901569 25.267765 9.000000
v 50.774601 27.144129 9.000000
v 53.506603 34.876450 9.000000
v 53.506603 75.123550 9.000000
v 54.352207 74.941307 9.000000
v 58.369442 83.828430 9.000000
v 57.673965 84.342796 9.000000
v 56.901569 84.732231 9.000000
v 56.074463 84.985535 9.000000
v 55.216450 85.095406 9.000000
v 54.352207 85.058693 9.000000
v 51.318024 33.528889 9.000000
v 50.774601 32.855869 9.000000
v 50.064564 31.285088 9.000000
v 49.918373 30.432508 9.000000
v 49.899998 30.000000 9.000000
v 49.918373 29.567490 9.000000
v 50.064564 28.714912 9.000000
v 50.352734 27.899303 9.000000
v 52.703960 25.446077 9.000000
v 51.967369 25.899614 9.000000
v 51.318024 26.471111 9.000000
v 53.506603 25.123550 9.000000
v 54.352207 24.941307 9.000000
v 55.216450 24.904596 9.000000
v 57.673965 25.657202 9.000000
v 58.369442 26.171570 9.000000
v 60.099998 30.000000 9.000000
v 60.026642 30.861902 9.000000
v 57.673965 75.657204 9.000000
v 56.901569 75.267769 9.000000
v 58.369442 76.171570 9.000000
v 50.352734 32.100697 9.000000
v 59.808674 31.699013 9.000000
v 59.452374 32.487244 9.000000
v 56.074463 75.014465 9.000000
v 50.774601 77.144127 9.000000
v 51.318024 76.471107 9.000000
v 51.967369 75.899612 9.000000
v 52.703960 75.446075 9.000000
v 58.967983 76.796074 9.000000
v 59.452374 77.512756 9.000000
v 59.808674 78.300987 9.000000
v 60.026642 29.138096 9.000000
v 58.967983 33.203922 9.000000
v 58.369442 33.828426 9.000000
v 57.673965 34.342796 9.000000
v 49.918373 79.567490 9.000000
v 50.064564 78.714912 9.000000
v 50.352734 77.899300 9.000000
v 58.967983 83.203918 9.000000
v 59.452374 82.487244 9.000000
v 58.967983 26.796078 9.000000
v 59.452374 27.512754 9.000000
v 59.808674 28.300987 9.000000
v 50.774601 82.855873 9.000000
v 50.352734 82.100700 9.000000
v 50.064564 81.285088 9.000000
v 49.918373 80.432510 9.000000
v 49.899998 80.000000 9.000000
v 56.901569 34.732235 9.000000
v 56.074463 34.985531 9.000000
v 55.216450 74.904594 9.000000
v 55.216450 35.095406 9.000000
v 54.352207 35.058693 9.000000
v 59.808674 81.699013 9.000000
v 60.026642 80.861900 9.000000
v 60.099998 80.000000 9.000000
v 60.026642 79.138100 9.000000
v 0.000000 55.000000 15.000000
v 0.301294 60.749065 30.000000
v 0.301294 60.749065 15.000000
v 1.201883 66.435143 30.000000
v 1.201883 66.435143 15.000000
v 2.691891 71.995934 30.000000
v 2.691891 71.995934 15.000000
v 4.754998 77.370514 30.000000
v 4.754998 77.370514 15.000000
v 7.368602 82.500000 30.000000
v 7.368602 82.500000 15.000000
v 10.504064 87.328186 30.000000
v 10.504064 87.328186 15.000000
v 14.127035 91.802185 30.000000
v 14.127035 91.802185 15.000000
v 18.197815 95.872963 30.000000
v 18.197815 95.872963 15.000000
v 22.671812 99.495934 30.000000
v 22.671812 99.495934 15.000000
v 27.500000 102.631401 30.000000
v 27.500000 102.631401 15.000000
v 32.629486 105.245003 30.000000
v 32.629486 105.245003 15.000000
v 38.004066 107.308105 30.000000
v 38.004066 107.308105 15.000000
v 43.564857 108.798119 30.000000
v 43.564857 108.798119 15.000000
v 49.250935 109.698708 30.000000
v 49.250935 109.698708 15.000000
v 55.000000 110.000000 30.000000
v 55.000000 110.000000 15.000000
v 60.749065 109.698708 30.000000
v 60.749065 109.698708 15.000000
v 66.435143 108.798119 30.000000
v 66.435143 108.798119 15.000000
v 71.995934 107.308105 30.000000
v 71.995934 107.308105 15.000000
v 77.370514 105.245003 30.000000
v 77.370514 105.245003 15.000000
v 82.500000 102.631401 30.000000
v 82.500000 102.631401 15.000000
v 87.328186 99.495934 30.000000
v 87.328186 99.495934 15.000000
v 91.802185 95.872963 30.000000
v 91.802185 95.872963 15.000000
v 95.872963 91.802185 30.000000
v 95.872963 91.802185 15.000000
v 99.495934 87.328186 30.000000
v 99.495934 87.328186 15.000000
v 102.631401 82.500000 30.000000
v 102.631401 82.500000 15.000000
v 105.245003 77.370514 30.000000
v 105.245003 77.370514 15.000000
v 107.308105 71.995934 30.000000
v 107.308105 71.995934 15.000000
v 108.798119 66.435143 30.000000
v 108.798119 66.435143 15.000000
v 109.698708 60.749065 30.000000
v 109.698708 60.749065 15.000000
v 110.000000 55.000000 30.000000
v 110.000000 55.000000 15.000000
v 109.698708 49.250935 30.000000
v 109.698708 49.250935 15.000000
v 108.798119 43.564857 30.000000
v 108.798119 43.564857 15.000000
v 107.308105 38.004066 30.000000
v 107.308105 38.004066 15.000000
v 105.245003 32.629486 30.000000
v 105.245003 32.629486 15.000000
v 102.631401 27.500000 30.000000
v 102.631401 27.500000 15.000000
v 99.495934 22.671812 30.000000
v 99.495934 22.671812 15.000000
v 95.872963 18.197815 30.000000
v 95.872963 18.197815 15.000000
v 91.802185 14.127035 30.000000
v 91.802185 14.127035 15.000000
v 87.328186 10.504064 30.000000
v 87.328186 10.504064 15.000000
v 82.500000 7.368602 30.000000
v 82.500000 7.368602 15.000000
v 77.370514 4.754998 30.000000
v 77.370514 4.754998 15.000000
v 71.995934 2.691891 30.000000
v 71.995934 2.691891 15.000000
v 66.435143 1.201883 30.000000
v 66.435143 1.201883 15.000000
v 60.749065 0.301294 30.000000
v 60.749065 0.301294 15.000000
v 55.000000 0.000000 30.000000
v 55.000000 0.000000 15.000000
v 49.250935 0.301294 30.000000
v 49.250935 0.301294 15.000000
v 43.564857 1.201883 30.000000
v 43.564857 1.201883 15.000000
v 38.004066 2.691891 30.000000
v 38.004066 2.691891 15.000000
v 32.629486 4.754998 30.000000
v 32.629486 4.754998 15.000000
v 27.500000 7.368602 30.000000
v 27.500000 7.368602 15.000000
v 22.671812 10.504064 30.000000
v 22.671812 10.504064 15.000000
v 18.197815 14.127035 30.000000
v 18.197815 14.127035 15.000000
v 14.127035 18.197815 30.000000
v 14.127035 18.197815 15.000000
v 10.504064 22.671812 30.000000
v 10.504064 22.671812 15.000000
v 7.368602 27.500000 30.000000
v 7.368602 27.500000 15.000000
v 4.754998 32.629486 30.000000
v 4.754998 32.629486 15.000000
v 2.691891 38.004066 30.000000
v 2.691891 38.004066 15.000000
v 1.201883 43.564857 30.000000
v 1.201883 43.564857 15.000000
v 0.301294 49.250935 30.000000
v 0.301294 49.250935 15.000000
v 0.000000 55.000000 30.000000
v 2.574407 57.794163 30.000000
v 2.574407 52.205837 30.000000
v 3.168411 46.649166 30.000000
v 4.349686 41.187115 30.000000
v 6.104849 35.881569 30.000000
v 8.414015 30.792645 30.000000
v 11.251018 25.977997 30.000000
v 14.583714 21.492180 30.000000
v 18.374346 17.386019 30.000000
v 22.579956 13.706043 30.000000
v 27.152901 10.493941 30.000000
v 32.041367 7.786114 30.000000
v 37.189960 5.613234 30.000000
v 42.540348 3.999930 30.000000
v 48.031910 2.964474 30.000000
v 53.602421 2.518605 30.000000
v 59.188770 2.667371 30.000000
v 64.727661 3.409084 30.000000
v 70.156326 4.735343 30.000000
v 75.413269 6.631121 30.000000
v 80.438919 9.074938 30.000000
v 85.176338 12.039103 30.000000
v 89.571846 15.490033 30.000000
v 93.575638 19.388628 30.000000
v 97.142365 23.690712 30.000000
v 100.231590 28.347544 30.000000
v 102.808327 33.306358 30.000000
v 104.843376 38.510971 30.000000
v 106.313683 43.902412 30.000000
v 107.202576 49.419590 30.000000
v 107.500000 55.000000 30.000000
v 107.202576 60.580406 30.000000
v 106.313683 66.097588 30.000000
v 104.843376 71.489029 30.000000
v 102.808327 76.693642 30.000000
v 100.231590 81.652458 30.000000
v 97.142365 86.309288 30.000000
v 93.575638 90.611374 30.000000
v 89.571846 94.509964 30.000000
v 85.176338 97.960899 30.000000
v 80.438919 100.925064 30.000000
v 75.413269 103.368881 30.000000
v 70.156326 105.264656 30.000000
v 64.727661 106.590912 30.000000
v 59.188770 107.332626 30.000000
v 53.602421 107.481392 30.000000
v 48.031910 107.035522 30.000000
v 42.540348 106.000069 30.000000
v 37.189960 104.386765 30.000000
v 32.041367 102.213882 30.000000
v 27.152901 99.506058 30.000000
v 22.579956 96.293953 30.000000
v 18.374346 92.613983 30.000000
v 14.583714 88.507820 30.000000
v 11.251018 84.022003 30.000000
v 8.414015 79.207352 30.000000
v 6.104849 74.118431 30.000000
v 4.349686 68.812881 30.000000
v 3.168411 63.350834 30.000000
v 107.500000 55.000000 25.000000
v 107.202576 60.580406 25.000000
v 106.313683 66.097588 25.000000
v 104.843376 71.489029 25.000000
v 102.808327 76.693642 25.000000
v 100.231590 81.652458 25.000000
v 97.142365 86.309288 25.000000
v 93.575638 90.611374 25.000000
v 89.571846 94.509964 25.000000
v 85.176338 97.960899 25.000000
v 80.438919 100.925064 25.000000
v 75.413269 103.368881 25.000000
v 70.156326 105.264656 25.000000
v 64.727661 106.590912 25.000000
v 59.188770 107.332626 25.000000
v 53.602421 107.481392 25.000000
v 48.031910 107.035522 25.000000
v 42.540348 106.000069 25.000000
v 37.189960 104.386765 25.000000
v 32.041367 102.213882 25.000000
v 27.152901 99.506058 25.000000
v 22.579956 96.293953 25.000000
v 18.374346 92.613983 25.000000
v 14.583714 88.507820 25.000000
v 11.251018 84.022003 25.000000
v 8.414015 79.207352 25.000000
v 6.104849 74.118431 25.000000
v 4.349686 68.812881 25.000000
v 3.168411 63.350834 25.000000
v 2.574407 57.794163 25.000000
v 2.574407 52.205837 25.000000
v 3.168411 46.649166 25.000000
v 4.349686 41.187115 25.000000
v 6.104849 35.881569 25.000000
v 8.414015 30.792645 25.000000
v 11.251018 25.977997 25.000000
v 14.583714 21.492180 25.000000
v 18.374346 17.386019 25.000000
v 22.579956 13.706043 25.000000
v 27.152901 10.493941 25.000000
v 32.041367 7.786114 25.000000
v 37.189960 5.613234 25.000000
v 42.540348 3.999930 25.000000
v 48.031910 2.964474 25.000000
v 53.602421 2.518605 25.000000
v 59.188770 2.667371 25.000000
v 64.727661 3.409084 25.000000
v 70.156326 4.735343 25.000000
v 75.413269 6.631121 25.000000
v 80.438919 9.074938 25.000000
v 85.176338 12.039103 25.000000
v 89.571846 15.490033 25.000000
v 93.575638 19.388628 25.000000
v 97.142365 23.690712 25.000000
v 100.231590 28.347544 25.000000
v 102.808327 33.306358 25.000000
v 104.843376 38.510971 25.000000
v 106.313683 43.902412 25.000000
v 107.202576 49.419590 25.000000
v 60.026642 80.861900 25.000000
v 60.099998 80.000000 25.000000
v 56.074463 34.985531 25.000000
v 56.901569 34.732235 25.000000
v 56.074463 75.014465 25.000000
v 56.074463 25.014467 25.000000
v 60.026642 30.861902 25.000000
v 60.099998 30.000000 25.000000
v 59.808674 28.300987 25.000000
v 60.026642 29.138096 25.000000
v 51.967369 34.100384 25.000000
v 52.703960 34.553921 25.000000
v 60.026642 79.138100 25.000000
v 59.808674 78.300987 25.000000
v 56.901569 25.267765 25.000000
v 57.673965 25.657202 25.000000
v 58.369442 26.171570 25.000000
v 58.967983 26.796078 25.000000
v 59.452374 27.512754 25.000000
v 59.452374 77.512756 25.000000
v 58.967983 76.796074 25.000000
v 58.369442 76.171570 25.000000
v 57.673965 75.657204 25.000000
v 56.901569 75.267769 25.000000
v 57.673965 34.342796 25.000000
v 58.369442 33.828426 25.000000
v 58.967983 33.203922 25.000000
v 59.452374 32.487244 25.000000
v 59.808674 31.699013 25.000000
v 55.216450 85.095406 25.000000
v 56.074463 84.985535 25.000000
v 56.901569 84.732231 25.000000
v 57.673965 84.342796 25.000000
v 58.369442 83.828430 25.000000
v 58.967983 83.203918 25.000000
v 59.452374 82.487244 25.000000
v 59.808674 81.699013 25.000000
v 51.318024 33.528889 25.000000
v 53.506603 34.876450 25.000000
v 52.703960 75.446075 25.000000
v 51.967369 75.899612 25.000000
v 51.318024 76.471107 25.000000
v 50.774601 77.144127 25.000000
v 50.352734 77.899300 25.000000
v 55.216450 35.095406 25.000000
v 55.216450 74.904594 25.000000
v 54.352207 35.058693 25.000000
v 54.352207 74.941307 25.000000
v 53.506603 75.123550 25.000000
v 50.064564 78.714912 25.000000
v 49.918373 79.567490 25.000000
v 50.352734 32.100697 25.000000
v 50.064564 31.285088 25.000000
v 49.918373 30.432508 25.000000
v 49.918373 80.432510 25.000000
v 50.064564 81.285088 25.000000
v 50.352734 82.100700 25.000000
v 55.216450 24.904596 25.000000
v 54.352207 24.941307 25.000000
v 53.506603 25.123550 25.000000
v 52.703960 25.446077 25.000000
v 51.967369 25.899614 25.000000
v 51.318024 26.471111 25.000000
v 50.774601 27.144129 25.000000
v 50.352734 27.899303 25.000000
v 50.064564 28.714912 25.000000
v 49.918373 29.567490 25.000000
v 50.774601 32.855869 25.000000
v 50.774601 82.855873 25.000000
v 51.318024 83.528885 25.000000
v 51.967369 84.100388 25.000000
v 52.703960 84.553925 25.000000
v 53.506603 84.876450 25.000000
v 54.352207 85.058693 25.000000
# 590 vertices, 0 vertices normals

f 1 2 3
f 3 2 4
f 3 4 5
f 5 4 6
f 5 6 7
f 7 6 8
f 7 8 9
f 9 8 10
f 9 10 11
f 11 10 12
f 11 12 13
f 13 12 14
f 13 14 15
f 15 14 16
f 15 16 17
f 17 16 18
f 17 18 19
f 19 18 20
f 19 20 21
f 21 20 22
f 21 22 23
f 23 22 24
f 23 24 25
f 25 24 26
f 25 26 27
f 27 26 28
f 27 28 29
f 29 28 30
f 29 30 31
f 31 30 32
f 31 32 33
f 33 32 34
f 33 34 35
f 35 34 36
f 35 36 37
f 37 36 38
f 37 38 39
f 39 38 40
f 39 40 41
f 41 40 42
f 41 42 43
f 43 42 44
f 43 44 45
f 45 44 46
f 45 46 47
f 47 46 48
f 47 48 49
f 49 48 50
f 49 50 51
f 51 50 52
f 51 52 53
f 53 52 54
f 53 54 55
f 55 54 56
f 55 56 57
f 57 56 58
f 57 58 59
f 59 58 60
f 59 60 61
f 61 60 62
f 61 62 63
f 63 62 64
f 63 64 65
f 65 64 66
f 65 66 67
f 67 66 68
f 67 68 69
f 69 68 70
f 69 70 71
f 71 70 72
f 71 72 73
f 73 72 74
f 73 74 75
f 75 74 76
f 75 76 77
f 77 76 78
f 77 78 79
f 79 78 80
f 79 80 81
f 81 80 82
f 81 82 83
f 83 82 84
f 83 84 85
f 85 84 86
f 85 86 87
f 87 86 88
f 87 88 89
f 89 88 90
f 89 90 91
f 91 90 92
f 91 92 93
f 93 92 94
f 93 94 95
f 95 94 96
f 95 96 97
f 97 96 98
f 97 98 99
f 99 98 100
f 99 100 101
f 101 100 102
f 101 102 103
f 103 102 104
f 103 104 105
f 105 104 106
f 105 106 107
f 107 106 108
f 107 108 1
f 1 108 2
f 109 39 110
f 110 39 41
f 110 41 111
f 111 41 43
f 111 43 112
f 112 43 45
f 112 45 113
f 113 45 47
f 113 47 114
f 114 47 49
f 114 49 115
f 115 49 51
f 115 51 116
f 117 85 118
f 118 85 87
f 118 87 119
f 119 87 89
f 119 89 120
f 120 89 91
f 120 91 121
f 121 91 93
f 121 93 122
f 122 93 95
f 122 95 123
f 123 95 97
f 123 97 124
f 51 53 116
f 116 53 55
f 116 55 125
f 125 55 57
f 125 57 126
f 126 57 59
f 126 59 127
f 127 59 61
f 127 61 128
f 128 61 63
f 128 63 129
f 129 63 65
f 129 65 130
f 130 65 67
f 130 67 131
f 97 99 124
f 124 99 101
f 124 101 132
f 132 101 103
f 132 103 133
f 133 103 105
f 133 105 134
f 134 105 107
f 134 107 135
f 135 107 1
f 135 1 136
f 136 1 3
f 136 3 137
f 137 3 5
f 137 5 138
f 67 69 131
f 131 69 71
f 131 71 139
f 139 71 73
f 139 73 140
f 140 73 75
f 140 75 141
f 141 75 77
f 141 77 142
f 142 77 79
f 142 79 143
f 143 79 81
f 143 81 117
f 117 81 83
f 117 83 85
f 144 25 145
f 145 25 27
f 145 27 146
f 146 27 29
f 146 29 147
f 147 29 31
f 147 31 148
f 148 31 33
f 148 33 149
f 149 33 35
f 149 35 109
f 109 35 37
f 109 37 39
f 5 7 138
f 138 7 9
f 138 9 150
f 150 9 11
f 150 11 151
f 151 11 13
f 151 13 152
f 152 13 15
f 152 15 153
f 153 15 17
f 153 17 154
f 154 17 19
f 154 19 155
f 155 19 21
f 155 21 144
f 144 21 23
f 144 23 25
f 156 135 157
f 157 135 136
f 157 136 158
f 158 136 137
f 158 137 159
f 159 137 138
f 159 138 160
f 160 138 150
f 160 150 161
f 161 150 151
f 161 151 162
f 162 151 152
f 162 152 163
f 163 152 153
f 163 153 164
f 164 153 154
f 164 154 165
f 165 154 155
f 165 155 166
f 166 155 144
f 166 144 167
f 167 144 145
f 167 145 168
f 168 145 146
f 168 146 169
f 169 146 147
f 169 147 170
f 170 147 148
f 170 148 171
f 171 148 149
f 171 149 172
f 172 149 109
f 172 109 173
f 173 109 110
f 173 110 174
f 174 110 111
f 174 111 175
f 175 111 112
f 175 112 176
f 176 112 113
f 176 113 177
f 177 113 114
f 177 114 178
f 178 114 115
f 178 115 179
f 179 115 116
f 179 116 180
f 180 116 125
f 180 125 181
f 181 125 126
f 181 126 182
f 182 126 127
f 182 127 183
f 183 127 128
f 183 128 184
f 184 128 129
f 184 129 185
f 185 129 130
f 185 130 186
f 186 130 131
f 186 131 187
f 187 131 139
f 187 139 188
f 188 139 140
f 188 140 189
f 189 140 141
f 189 141 190
f 190 141 142
f 190 142 191
f 191 142 143
f 191 143 192
f 192 143 117
f 192 117 193
f 193 117 118
f 193 118 194
f 194 118 119
f 194 119 195
f 195 119 120
f 195 120 196
f 196 120 121
f 196 121 197
f 197 121 122
f 197 122 198
f 198 122 123
f 198 123 199
f 199 123 124
f 199 124 200
f 200 124 132
f 200 132 201
f 201 132 133
f 201 133 202
f 202 133 134
f 202 134 156
f 156 134 135
f 167 203 204
f 167 204 166
f 159 160 205
f 205 160 206
f 204 207 166
f 166 207 208
f 166 208 165
f 191 209 190
f 190 209 210
f 193 194 211
f 212 213 214
f 215 216 169
f 169 216 217
f 169 217 168
f 217 218 168
f 168 218 219
f 168 219 167
f 167 219 220
f 167 220 203
f 221 222 202
f 223 224 197
f 197 224 225
f 197 225 196
f 196 225 226
f 196 226 195
f 195 226 227
f 195 227 194
f 194 227 228
f 194 228 211
f 229 192 230
f 230 192 193
f 230 193 231
f 231 193 211
f 229 232 192
f 192 232 233
f 192 233 191
f 191 233 234
f 191 234 209
f 210 235 190
f 190 235 236
f 190 236 189
f 237 238 188
f 184 185 239
f 239 185 240
f 184 239 183
f 183 239 241
f 183 241 182
f 202 156 221
f 221 156 157
f 221 157 205
f 205 157 158
f 205 158 159
f 197 198 223
f 223 198 199
f 223 199 242
f 242 199 200
f 242 200 222
f 222 200 201
f 222 201 202
f 243 244 245
f 160 161 206
f 206 161 162
f 206 162 212
f 212 162 246
f 212 246 247
f 247 248 212
f 212 248 249
f 212 249 213
f 250 180 241
f 241 180 181
f 241 181 182
f 251 252 176
f 237 188 253
f 244 254 245
f 245 254 255
f 245 255 256
f 257 258 162
f 162 258 259
f 162 259 246
f 176 177 251
f 251 177 178
f 251 178 250
f 250 178 179
f 250 179 180
f 215 169 260
f 260 169 170
f 260 170 261
f 236 262 189
f 189 262 263
f 189 263 188
f 188 263 264
f 188 264 253
f 238 243 188
f 188 243 245
f 188 245 187
f 187 245 240
f 187 240 186
f 186 240 185
f 208 265 165
f 165 265 266
f 165 266 164
f 164 266 267
f 164 267 163
f 163 267 268
f 163 268 162
f 162 268 269
f 162 269 257
f 256 270 245
f 245 270 271
f 245 271 272
f 272 271 273
f 272 273 214
f 214 273 274
f 214 274 212
f 261 170 275
f 275 170 171
f 275 171 276
f 276 171 172
f 276 172 277
f 277 172 173
f 277 173 278
f 278 173 174
f 278 174 252
f 252 174 175
f 252 175 176
f 279 280 281
f 281 280 282
f 281 282 283
f 283 282 284
f 283 284 285
f 285 284 286
f 285 286 287
f 287 286 288
f 287 288 289
f 289 288 290
f 289 290 291
f 291 290 292
f 291 292 293
f 293 292 294
f 293 294 295
f 295 294 296
f 295 296 297
f 297 296 298
f 297 298 299
f 299 298 300
f 299 300 301
f 301 300 302
f 301 302 303
f 303 302 304
f 303 304 305
f 305 304 306
f 305 306 307
f 307 306 308
f 307 308 309
f 309 308 310
f 309 310 311
f 311 310 312
f 311 312 313
f 313 312 314
f 313 314 315
f 315 314 316
f 315 316 317
f 317 316 318
f 317 318 319
f 319 318 320
f 319 320 321
f 321 320 322
f 321 322 323
f 323 322 324
f 323 324 325
f 325 324 326
f 325 326 327
f 327 326 328
f 327 328 329
f 329 328 330
f 329 330 331
f 331 330 332
f 331 332 333
f 333 332 334
f 333 334 335
f 335 334 336
f 335 336 337
f 337 336 338
f 337 338 339
f 339 338 340
f 339 340 341
f 341 340 342
f 341 342 343
f 343 342 344
f 343 344 345
f 345 344 346
f 345 346 347
f 347 346 348
f 347 348 349
f 349 348 350
f 349 350 351
f 351 350 352
f 351 352 353
f 353 352 354
f 353 354 355
f 355 354 356
f 355 356 357
f 357 356 358
f 357 358 359
f 359 358 360
f 359 360 361
f 361 360 362
f 361 362 363
f 363 362 364
f 363 364 365
f 365 364 366
f 365 366 367
f 367 366 368
f 367 368 369
f 369 368 370
f 369 370 371
f 371 370 372
f 371 372 373
f 373 372 374
f 373 374 375
f 375 374 376
f 375 376 377
f 377 376 378
f 377 378 379
f 379 378 380
f 379 380 381
f 381 380 382
f 381 382 383
f 383 382 384
f 383 384 385
f 385 384 386
f 385 386 387
f 387 386 388
f 387 388 389
f 389 388 390
f 389 390 391
f 391 390 392
f 391 392 393
f 393 392 394
f 393 394 395
f 395 394 396
f 395 396 397
f 397 396 398
f 397 398 279
f 279 398 280
f 282 280 399
f 399 280 398
f 399 398 400
f 400 398 396
f 400 396 401
f 401 396 394
f 401 394 402
f 402 394 392
f 402 392 403
f 403 392 390
f 403 390 404
f 404 390 388
f 404 388 405
f 405 388 386
f 405 386 406
f 406 386 384
f 406 384 407
f 407 384 382
f 407 382 408
f 408 382 380
f 408 380 409
f 409 380 378
f 409 378 410
f 410 378 376
f 410 376 411
f 411 376 374
f 411 374 412
f 412 374 372
f 412 372 413
f 413 372 370
f 413 370 414
f 414 370 368
f 414 368 415
f 415 368 366
f 415 366 416
f 416 366 364
f 416 364 417
f 417 364 362
f 417 362 418
f 418 362 360
f 418 360 419
f 419 360 358
f 419 358 420
f 420 358 356
f 420 356 421
f 421 356 354
f 421 354 422
f 422 354 352
f 422 352 423
f 423 352 350
f 423 350 424
f 424 350 348
f 424 348 425
f 425 348 346
f 425 346 426
f 426 346 344
f 426 344 427
f 427 344 342
f 427 342 428
f 428 342 340
f 428 340 429
f 429 340 338
f 429 338 430
f 430 338 336
f 430 336 431
f 431 336 334
f 431 334 432
f 432 334 332
f 432 332 433
f 433 332 330
f 433 330 434
f 434 330 328
f 434 328 435
f 435 328 326
f 435 326 436
f 436 326 324
f 436 324 437
f 437 324 322
f 437 322 438
f 438 322 320
f 438 320 439
f 439 320 318
f 439 318 440
f 440 318 316
f 440 316 441
f 441 316 314
f 441 314 442
f 442 314 312
f 442 312 443
f 443 312 310
f 443 310 444
f 444 310 308
f 444 308 445
f 445 308 306
f 445 306 446
f 446 306 304
f 446 304 447
f 447 304 302
f 447 302 448
f 448 302 300
f 448 300 449
f 449 300 298
f 449 298 450
f 450 298 296
f 450 296 451
f 451 296 294
f 451 294 452
f 452 294 292
f 452 292 453
f 453 292 290
f 453 290 454
f 454 290 288
f 454 288 455
f 455 288 286
f 455 286 456
f 456 286 284
f 456 284 457
f 457 284 282
f 457 282 399
f 98 389 100
f 100 389 391
f 100 391 102
f 102 391 393
f 102 393 104
f 104 393 395
f 104 395 106
f 106 395 397
f 106 397 108
f 108 397 279
f 108 279 2
f 2 279 281
f 2 281 4
f 4 281 283
f 4 283 6
f 6 283 285
f 6 285 8
f 80 369 82
f 82 369 371
f 82 371 84
f 84 371 373
f 84 373 86
f 86 373 375
f 86 375 88
f 88 375 377
f 88 377 90
f 90 377 379
f 90 379 92
f 92 379 381
f 92 381 94
f 94 381 383
f 94 383 96
f 96 383 385
f 96 385 98
f 98 385 387
f 98 387 389
f 62 349 64
f 64 349 351
f 64 351 66
f 66 351 353
f 66 353 68
f 68 353 355
f 68 355 70
f 70 355 357
f 70 357 72
f 72 357 359
f 72 359 74
f 74 359 361
f 74 361 76
f 76 361 363
f 76 363 78
f 78 363 365
f 78 365 80
f 80 365 367
f 80 367 369
f 285 287 8
f 8 287 289
f 8 289 10
f 10 289 291
f 10 291 12
f 12 291 293
f 12 293 14
f 14 293 295
f 14 295 16
f 16 295 297
f 16 297 18
f 18 297 299
f 18 299 20
f 20 299 301
f 20 301 22
f 22 301 303
f 22 303 24
f 24 303 305
f 24 305 26
f 305 307 26
f 26 307 309
f 26 309 28
f 28 309 311
f 28 311 30
f 30 311 313
f 30 313 32
f 32 313 315
f 32 315 34
f 34 315 317
f 34 317 36
f 36 317 319
f 36 319 38
f 38 319 321
f 38 321 40
f 40 321 323
f 40 323 42
f 42 323 325
f 42 325 44
f 325 327 44
f 44 327 329
f 44 329 46
f 46 329 331
f 46 331 48
f 48 331 333
f 48 333 50
f 50 333 335
f 50 335 52
f 52 335 337
f 52 337 54
f 54 337 339
f 54 339 56
f 56 339 341
f 56 341 58
f 58 341 343
f 58 343 60
f 60 343 345
f 60 345 62
f 62 345 347
f 62 347 349
f 458 429 459
f 459 429 430
f 459 430 460
f 460 430 431
f 460 431 461
f 461 431 432
f 461 432 462
f 462 432 433
f 462 433 463
f 463 433 434
f 463 434 464
f 464 434 435
f 464 435 465
f 465 435 436
f 465 436 466
f 466 436 437
f 466 437 467
f 467 437 438
f 467 438 468
f 468 438 439
f 468 439 469
f 469 439 440
f 469 440 470
f 470 440 441
f 470 441 471
f 471 441 442
f 471 442 472
f 472 442 443
f 472 443 473
f 473 443 444
f 473 444 474
f 474 444 445
f 474 445 475
f 475 445 446
f 475 446 476
f 476 446 447
f 476 447 477
f 477 447 448
f 477 448 478
f 478 448 449
f 478 449 479
f 479 449 450
f 479 450 480
f 480 450 451
f 480 451 481
f 481 451 452
f 481 452 482
f 482 452 453
f 482 453 483
f 483 453 454
f 483 454 484
f 484 454 455
f 484 455 485
f 485 455 456
f 485 456 486
f 486 456 457
f 486 457 487
f 487 457 399
f 487 399 488
f 488 399 400
f 488 400 489
f 489 400 401
f 489 401 490
f 490 401 402
f 490 402 491
f 491 402 403
f 491 403 492
f 492 403 404
f 492 404 493
f 493 404 405
f 493 405 494
f 494 405 406
f 494 406 495
f 495 406 407
f 495 407 496
f 496 407 408
f 496 408 497
f 497 408 409
f 497 409 498
f 498 409 410
f 498 410 499
f 499 410 411
f 499 411 500
f 500 411 412
f 500 412 501
f 501 412 413
f 501 413 502
f 502 413 414
f 502 414 503
f 503 414 415
f 503 415 504
f 504 415 416
f 504 416 505
f 505 416 417
f 505 417 506
f 506 417 418
f 506 418 507
f 507 418 419
f 507 419 508
f 508 419 420
f 508 420 509
f 509 420 421
f 509 421 510
f 510 421 422
f 510 422 511
f 511 422 423
f 511 423 512
f 512 423 424
f 512 424 513
f 513 424 425
f 513 425 514
f 514 425 426
f 514 426 515
f 515 426 427
f 515 427 516
f 516 427 428
f 516 428 458
f 458 428 429
f 517 518 463
f 519 520 521
f 502 503 522
f 513 523 524
f 525 510 526
f 526 510 511
f 526 511 524
f 524 511 512
f 524 512 513
f 481 527 480
f 480 527 528
f 480 528 479
f 463 518 520
f 520 518 529
f 520 529 530
f 522 503 531
f 531 503 504
f 531 504 532
f 532 504 505
f 532 505 533
f 533 505 506
f 533 506 534
f 534 506 507
f 534 507 535
f 535 507 508
f 535 508 525
f 525 508 509
f 525 509 510
f 530 536 520
f 520 536 537
f 520 537 538
f 538 539 520
f 520 539 540
f 520 540 521
f 520 541 463
f 463 541 542
f 463 542 462
f 462 542 543
f 544 460 543
f 543 460 461
f 543 461 462
f 545 458 544
f 544 458 459
f 544 459 460
f 513 514 523
f 523 514 515
f 523 515 545
f 545 515 516
f 545 516 458
f 473 546 472
f 472 546 547
f 472 547 471
f 471 547 548
f 471 548 470
f 470 548 549
f 470 549 469
f 469 549 550
f 469 550 468
f 468 550 551
f 468 551 467
f 467 551 552
f 467 552 466
f 466 552 553
f 466 553 465
f 465 553 517
f 465 517 464
f 464 517 463
f 481 482 527
f 527 482 483
f 527 483 554
f 555 556 557
f 557 558 555
f 555 558 559
f 555 559 560
f 519 521 561
f 561 521 562
f 561 562 563
f 563 562 564
f 563 564 555
f 555 564 565
f 555 565 556
f 566 567 477
f 568 489 569
f 569 489 490
f 569 490 570
f 567 571 477
f 477 571 572
f 477 572 573
f 522 574 502
f 502 574 575
f 502 575 501
f 501 575 576
f 501 576 500
f 500 576 577
f 500 577 499
f 499 577 578
f 499 578 498
f 498 578 579
f 498 579 497
f 497 579 580
f 497 580 496
f 496 580 581
f 496 581 495
f 495 581 582
f 490 491 570
f 570 491 492
f 570 492 583
f 583 492 493
f 583 493 582
f 582 493 494
f 582 494 495
f 584 487 568
f 568 487 488
f 568 488 489
f 483 484 554
f 554 484 485
f 554 485 584
f 584 485 486
f 584 486 487
f 479 528 478
f 478 528 555
f 478 555 477
f 477 555 560
f 477 560 566
f 573 585 477
f 477 585 586
f 477 586 476
f 476 586 587
f 476 587 475
f 475 587 588
f 475 588 474
f 474 588 589
f 474 589 473
f 473 589 590
f 473 590 546
f 227 226 583
f 583 226 225
f 583 225 570
f 570 225 224
f 570 224 569
f 569 224 223
f 569 223 568
f 568 223 242
f 568 242 584
f 584 242 222
f 584 222 554
f 554 222 221
f 554 221 527
f 527 221 205
f 527 205 528
f 528 205 206
f 528 206 555
f 555 206 212
f 555 212 563
f 563 212 274
f 563 274 561
f 561 274 273
f 561 273 519
f 519 273 271
f 519 271 520
f 520 271 270
f 520 270 541
f 541 270 256
f 541 256 542
f 542 256 255
f 542 255 543
f 543 255 254
f 543 254 544
f 544 254 244
f 544 244 545
f 545 244 243
f 545 243 523
f 523 243 238
f 523 238 524
f 524 238 237
f 524 237 526
f 526 237 253
f 526 253 525
f 525 253 264
f 525 264 535
f 535 264 263
f 535 263 534
f 534 263 262
f 534 262 533
f 533 262 236
f 533 236 532
f 532 236 235
f 532 235 531
f 531 235 210
f 531 210 522
f 522 210 209
f 522 209 574
f 574 209 234
f 574 234 575
f 575 234 233
f 575 233 576
f 576 233 232
f 576 232 577
f 577 232 229
f 577 229 578
f 578 229 230
f 578 230 579
f 579 230 231
f 579 231 580
f 580 231 211
f 580 211 581
f 581 211 228
f 581 228 582
f 582 228 227
f 582 227 583
f 258 257 567
f 567 257 269
f 567 269 571
f 571 269 268
f 571 268 572
f 572 268 267
f 572 267 573
f 573 267 266
f 573 266 585
f 585 266 265
f 585 265 586
f 586 265 208
f 586 208 587
f 587 208 207
f 587 207 588
f 588 207 204
f 588 204 589
f 589 204 203
f 589 203 590
f 590 203 220
f 590 220 546
f 546 220 219
f 546 219 547
f 547 219 218
f 547 218 548
f 548 218 217
f 548 217 549
f 549 217 216
f 549 216 550
f 550 216 215
f 550 215 551
f 551 215 260
f 551 260 552
f 552 260 261
f 552 261 553
f 553 261 275
f 553 275 517
f 517 275 276
f 517 276 518
f 518 276 277
f 518 277 529
f 529 277 278
f 529 278 530
f 530 278 252
f 530 252 536
f 536 252 251
f 536 251 537
f 537 251 250
f 537 250 538
f 538 250 241
f 538 241 539
f 539 241 239
f 539 239 540
f 540 239 240
f 540 240 521
f 521 240 245
f 521 245 562
f 562 245 272
f 562 272 564
f 564 272 214
f 564 214 565
f 565 214 213
f 565 213 556
f 556 213 249
f 556 249 557
f 557 249 248
f 557 248 558
f 558 248 247
f 558 247 559
f 559 247 246
f 559 246 560
f 560 246 259
f 560 259 566
f 566 259 258
f 566 258 567
# 1184 faces, 0 coords texture

# End of File
