####
#
# OBJ File Generated by Meshlab
#
####
# Object rubber_pad.obj
#
# Vertices: 272
# Faces: 548
#
####
v 104.930389 55.202633 15.000000
v 105.000000 52.500000 15.000000
v 105.000000 52.500000 0.000000
v 104.930389 55.202633 0.000000
v 104.930389 49.797363 0.000000
v 104.930389 49.797363 15.000000
v 104.374611 44.420742 15.000000
v 104.374611 44.420742 0.000000
v 103.268951 39.129765 15.000000
v 103.268951 39.129765 0.000000
v 101.625130 33.980515 15.000000
v 101.625130 33.980515 0.000000
v 99.460571 29.027575 15.000000
v 99.460571 29.027575 0.000000
v 96.798218 24.323448 15.000000
v 96.798218 24.323448 0.000000
v 93.666290 19.918003 15.000000
v 93.666290 19.918003 0.000000
v 90.097992 15.857931 15.000000
v 90.097992 15.857931 0.000000
v 86.131142 12.186274 0.000000
v 86.131142 12.186274 15.000000
v 81.807793 8.941956 0.000000
v 81.807793 8.941956 15.000000
v 77.173775 6.159361 0.000000
v 77.173775 6.159361 15.000000
v 72.278214 3.867991 0.000000
v 72.278214 3.867991 15.000000
v 67.172997 2.092130 0.000000
v 67.172997 2.092130 15.000000
v 61.912239 0.850607 0.000000
v 61.912239 0.850607 15.000000
v 56.551712 0.156578 0.000000
v 56.551712 0.156578 15.000000
v 51.148232 0.017405 0.000000
v 51.148232 0.017405 15.000000
v 45.759083 0.434559 15.000000
v 45.759083 0.434559 0.000000
v 40.441391 1.403619 0.000000
v 40.441391 1.403619 15.000000
v 35.251522 2.914313 0.000000
v 35.251522 2.914313 15.000000
v 30.244492 4.950632 0.000000
v 30.244492 4.950632 15.000000
v 25.473377 7.490982 15.000000
v 25.473377 7.490982 0.000000
v 20.988747 10.508437 0.000000
v 20.988747 10.508437 15.000000
v 16.838148 13.971016 0.000000
v 16.838148 13.971016 15.000000
v 13.065573 17.842014 15.000000
v 13.065573 17.842014 0.000000
v 9.711012 22.080389 15.000000
v 9.711012 22.080389 0.000000
v 6.810024 26.641226 15.000000
v 6.810024 26.641226 0.000000
v 4.393362 31.476168 15.000000
v 4.393362 31.476168 0.000000
v 2.486642 36.533970 15.000000
v 2.486642 36.533970 0.000000
v 1.110073 41.761013 15.000000
v 1.110073 41.761013 0.000000
v 0.278253 47.101894 15.000000
v 0.278253 47.101894 0.000000
v 0.000000 52.500000 15.000000
v 0.000000 52.500000 0.000000
v 0.278253 57.898102 15.000000
v 0.278253 57.898102 0.000000
v 1.110073 63.238983 15.000000
v 1.110073 63.238983 0.000000
v 2.486642 68.466026 15.000000
v 2.486642 68.466026 0.000000
v 4.393362 73.523827 15.000000
v 4.393362 73.523827 0.000000
v 6.810024 78.358772 15.000000
v 6.810024 78.358772 0.000000
v 9.711012 82.919609 15.000000
v 9.711012 82.919609 0.000000
v 13.065573 87.157982 15.000000
v 13.065573 87.157982 0.000000
v 16.838148 91.028984 15.000000
v 16.838148 91.028984 0.000000
v 20.988747 94.491562 0.000000
v 20.988747 94.491562 15.000000
v 25.473377 97.509018 0.000000
v 25.473377 97.509018 15.000000
v 30.244492 100.049362 0.000000
v 30.244492 100.049362 15.000000
v 35.251522 102.085686 0.000000
v 35.251522 102.085686 15.000000
v 40.441391 103.596375 0.000000
v 40.441391 103.596375 15.000000
v 45.759083 104.565437 0.000000
v 45.759083 104.565437 15.000000
v 51.148232 104.982590 0.000000
v 51.148232 104.982590 15.000000
v 56.551712 104.843422 0.000000
v 56.551712 104.843422 15.000000
v 61.912239 104.149391 0.000000
v 61.912239 104.149391 15.000000
v 67.172997 102.907867 0.000000
v 67.172997 102.907867 15.000000
v 72.278214 101.132004 0.000000
v 72.278214 101.132004 15.000000
v 77.173775 98.840637 0.000000
v 77.173775 98.840637 15.000000
v 81.807793 96.058044 0.000000
v 81.807793 96.058044 15.000000
v 86.131142 92.813721 0.000000
v 86.131142 92.813721 15.000000
v 90.097992 89.142067 0.000000
v 90.097992 89.142067 15.000000
v 93.666290 85.081993 15.000000
v 93.666290 85.081993 0.000000
v 96.798218 80.676552 15.000000
v 96.798218 80.676552 0.000000
v 99.460571 75.972420 15.000000
v 99.460571 75.972420 0.000000
v 101.625130 71.019485 15.000000
v 101.625130 71.019485 0.000000
v 103.268951 65.870232 15.000000
v 103.268951 65.870232 0.000000
v 104.374611 60.579254 15.000000
v 104.374611 60.579254 0.000000
v 49.467369 23.399614 15.000000
v 48.818024 23.971111 15.000000
v 48.274597 24.644127 15.000000
v 50.203960 22.946077 15.000000
v 47.852734 25.399302 15.000000
v 51.006603 22.623549 15.000000
v 47.564560 26.214911 15.000000
v 51.852207 22.441305 15.000000
v 47.418373 27.067488 15.000000
v 52.716450 22.404594 15.000000
v 47.418373 27.932508 15.000000
v 53.574463 22.514465 15.000000
v 47.564560 28.785088 15.000000
v 54.401566 22.767763 15.000000
v 47.852734 29.600695 15.000000
v 55.173965 23.157200 15.000000
v 48.274597 30.355869 15.000000
v 55.869438 23.671570 15.000000
v 48.818024 31.028887 15.000000
v 56.467979 24.296078 15.000000
v 56.952370 25.012754 15.000000
v 57.308674 25.800985 15.000000
v 57.526638 26.638094 15.000000
v 57.599998 27.499998 15.000000
v 57.526638 28.361902 15.000000
v 57.308674 29.199011 15.000000
v 48.818024 73.971107 15.000000
v 49.467369 31.600384 15.000000
v 49.467369 73.399612 15.000000
v 48.274597 74.644127 15.000000
v 50.203960 72.946075 15.000000
v 50.203960 32.053921 15.000000
v 51.006603 32.376450 15.000000
v 47.852734 75.399300 15.000000
v 51.006603 72.623550 15.000000
v 47.564560 76.214912 15.000000
v 51.852207 72.441307 15.000000
v 51.852207 32.558689 15.000000
v 47.418373 77.067490 15.000000
v 52.716450 72.404594 15.000000
v 52.716450 32.595402 15.000000
v 47.418373 77.932510 15.000000
v 53.574463 72.514465 15.000000
v 53.574463 32.485531 15.000000
v 47.564560 78.785088 15.000000
v 54.401566 72.767761 15.000000
v 54.401566 32.232231 15.000000
v 55.173965 31.842796 15.000000
v 47.852734 79.600693 15.000000
v 55.173965 73.157204 15.000000
v 56.952370 29.987242 15.000000
v 55.869438 73.671570 15.000000
v 55.869438 31.328426 15.000000
v 48.274597 80.355873 15.000000
v 48.818024 81.028885 15.000000
v 49.467369 81.600380 15.000000
v 56.467979 30.703920 15.000000
v 50.203960 82.053917 15.000000
v 51.006603 82.376450 15.000000
v 51.852207 82.558693 15.000000
v 52.716450 82.595406 15.000000
v 56.467979 74.296074 15.000000
v 53.574463 82.485527 15.000000
v 54.401566 82.232231 15.000000
v 55.173965 81.842796 15.000000
v 56.952370 75.012756 15.000000
v 55.869438 81.328430 15.000000
v 56.467979 80.703918 15.000000
v 56.952370 79.987244 15.000000
v 57.308674 75.800987 15.000000
v 57.308674 79.199013 15.000000
v 57.526638 78.361900 15.000000
v 57.526638 76.638092 15.000000
v 57.599998 77.500000 15.000000
v 55.869438 23.671570 0.000000
v 56.467979 24.296078 0.000000
v 55.173965 23.157200 0.000000
v 56.952370 25.012754 0.000000
v 54.401566 22.767763 0.000000
v 57.308674 25.800985 0.000000
v 53.574463 22.514465 0.000000
v 57.526638 26.638094 0.000000
v 52.716450 22.404594 0.000000
v 57.599998 27.499998 0.000000
v 51.852207 22.441305 0.000000
v 57.526638 28.361902 0.000000
v 51.006603 22.623549 0.000000
v 57.308674 29.199011 0.000000
v 50.203960 22.946077 0.000000
v 56.952370 29.987242 0.000000
v 49.467369 23.399614 0.000000
v 56.467979 30.703920 0.000000
v 48.818024 23.971111 0.000000
v 55.869438 31.328426 0.000000
v 48.274597 24.644127 0.000000
v 47.852734 25.399302 0.000000
v 47.564560 26.214911 0.000000
v 47.418373 27.067488 0.000000
v 47.418373 27.932508 0.000000
v 47.564560 28.785088 0.000000
v 55.869438 73.671570 0.000000
v 55.173965 31.842796 0.000000
v 56.467979 74.296074 0.000000
v 55.173965 73.157204 0.000000
v 56.952370 75.012756 0.000000
v 54.401566 72.767761 0.000000
v 54.401566 32.232231 0.000000
v 53.574463 32.485531 0.000000
v 57.308674 75.800987 0.000000
v 53.574463 72.514465 0.000000
v 57.526638 76.638092 0.000000
v 52.716450 72.404594 0.000000
v 52.716450 32.595402 0.000000
v 47.852734 29.600695 0.000000
v 57.599998 77.500000 0.000000
v 51.852207 72.441307 0.000000
v 51.852207 32.558689 0.000000
v 51.006603 32.376450 0.000000
v 57.526638 78.361900 0.000000
v 51.006603 72.623550 0.000000
v 57.308674 79.199013 0.000000
v 50.203960 72.946075 0.000000
v 50.203960 32.053921 0.000000
v 56.952370 79.987244 0.000000
v 49.467369 73.399612 0.000000
v 49.467369 31.600384 0.000000
v 48.818024 73.971107 0.000000
v 48.818024 31.028887 0.000000
v 48.274597 30.355869 0.000000
v 56.467979 80.703918 0.000000
v 55.869438 81.328430 0.000000
v 55.173965 81.842796 0.000000
v 54.401566 82.232231 0.000000
v 53.574463 82.485527 0.000000
v 52.716450 82.595406 0.000000
v 51.852207 82.558693 0.000000
v 51.006603 82.376450 0.000000
v 50.203960 82.053917 0.000000
v 48.274597 74.644127 0.000000
v 49.467369 81.600380 0.000000
v 48.818024 81.028885 0.000000
v 48.274597 80.355873 0.000000
v 47.852734 75.399300 0.000000
v 47.852734 79.600693 0.000000
v 47.564560 76.214912 0.000000
v 47.564560 78.785088 0.000000
v 47.418373 77.932510 0.000000
v 47.418373 77.067490 0.000000
# 272 vertices, 0 vertices normals

f 1 2 3
f 1 3 4
f 2 5 3
f 2 6 5
f 6 7 8
f 6 8 5
f 7 9 10
f 7 10 8
f 9 11 12
f 9 12 10
f 11 13 14
f 11 14 12
f 13 15 16
f 13 16 14
f 17 18 16
f 15 17 16
f 17 19 20
f 17 20 18
f 21 20 19
f 21 19 22
f 23 21 22
f 23 22 24
f 25 23 24
f 25 24 26
f 27 25 26
f 27 26 28
f 29 27 28
f 29 28 30
f 31 29 30
f 31 30 32
f 33 31 32
f 33 32 34
f 35 33 34
f 35 34 36
f 35 36 37
f 38 35 37
f 39 38 37
f 39 37 40
f 41 39 40
f 41 40 42
f 43 41 42
f 43 42 44
f 43 44 45
f 46 43 45
f 47 46 45
f 47 45 48
f 49 47 48
f 49 48 50
f 50 51 52
f 50 52 49
f 51 53 54
f 51 54 52
f 53 55 56
f 53 56 54
f 55 57 58
f 55 58 56
f 59 60 58
f 57 59 58
f 59 61 62
f 59 62 60
f 61 63 64
f 61 64 62
f 63 65 66
f 63 66 64
f 67 68 66
f 65 67 66
f 67 69 70
f 67 70 68
f 69 71 72
f 69 72 70
f 71 73 74
f 71 74 72
f 73 75 76
f 73 76 74
f 75 77 78
f 75 78 76
f 77 79 80
f 77 80 78
f 79 81 82
f 79 82 80
f 83 82 81
f 83 81 84
f 85 83 84
f 85 84 86
f 87 85 86
f 87 86 88
f 89 87 88
f 89 88 90
f 91 89 90
f 91 90 92
f 93 91 92
f 93 92 94
f 95 93 94
f 95 94 96
f 97 95 96
f 97 96 98
f 99 97 98
f 99 98 100
f 101 99 100
f 101 100 102
f 103 101 102
f 103 102 104
f 105 103 104
f 105 104 106
f 107 105 106
f 107 106 108
f 109 107 108
f 109 108 110
f 111 109 110
f 111 110 112
f 112 113 114
f 112 114 111
f 113 115 116
f 113 116 114
f 115 117 118
f 115 118 116
f 117 119 120
f 117 120 118
f 119 121 122
f 119 122 120
f 121 123 124
f 121 124 122
f 123 1 4
f 123 4 124
f 125 126 42
f 125 42 40
f 127 42 126
f 127 44 42
f 128 40 37
f 128 125 40
f 129 45 44
f 129 44 127
f 130 128 37
f 131 45 129
f 131 48 45
f 132 37 36
f 132 130 37
f 133 48 131
f 133 50 48
f 134 36 34
f 134 132 36
f 135 51 50
f 135 50 133
f 136 134 34
f 137 55 53
f 137 53 51
f 137 51 135
f 138 34 32
f 138 136 34
f 139 57 55
f 139 55 137
f 140 32 30
f 140 138 32
f 141 57 139
f 141 61 59
f 141 59 57
f 142 30 28
f 142 140 30
f 143 61 141
f 143 65 63
f 143 63 61
f 144 142 28
f 145 144 28
f 26 145 28
f 26 146 145
f 24 147 146
f 24 146 26
f 22 148 147
f 22 147 24
f 19 149 148
f 19 148 22
f 17 150 149
f 17 149 19
f 15 150 17
f 151 143 152
f 151 65 143
f 151 69 67
f 151 67 65
f 153 151 152
f 154 73 71
f 154 71 69
f 154 69 151
f 155 152 156
f 155 156 157
f 155 153 152
f 158 75 73
f 158 73 154
f 159 155 157
f 160 79 77
f 160 77 75
f 160 75 158
f 161 157 162
f 161 159 157
f 163 81 79
f 163 79 160
f 164 162 165
f 164 161 162
f 166 84 81
f 166 81 163
f 167 164 165
f 167 165 168
f 169 84 166
f 169 86 84
f 170 167 168
f 170 168 171
f 170 171 172
f 173 86 169
f 174 170 172
f 13 175 150
f 13 150 15
f 176 172 177
f 176 174 172
f 88 86 173
f 88 173 178
f 11 175 13
f 90 88 178
f 90 178 179
f 90 179 180
f 9 181 175
f 9 175 11
f 92 90 180
f 92 180 182
f 7 181 9
f 94 92 182
f 94 182 183
f 94 183 184
f 6 177 181
f 6 181 7
f 96 94 184
f 96 184 185
f 2 176 177
f 2 177 6
f 1 176 2
f 1 186 176
f 98 96 185
f 98 185 187
f 98 187 188
f 123 186 1
f 100 98 188
f 100 188 189
f 121 186 123
f 121 190 186
f 102 189 191
f 102 100 189
f 119 190 121
f 104 191 192
f 104 192 193
f 104 102 191
f 117 194 190
f 117 190 119
f 106 193 195
f 106 104 193
f 115 194 117
f 108 195 196
f 108 106 195
f 113 197 194
f 113 194 115
f 110 108 196
f 110 196 198
f 112 197 113
f 112 110 198
f 112 198 197
f 199 27 29
f 200 27 199
f 201 29 31
f 201 199 29
f 202 25 27
f 202 27 200
f 203 31 33
f 203 201 31
f 204 23 25
f 204 25 202
f 205 203 33
f 206 23 204
f 206 21 23
f 207 33 35
f 207 205 33
f 208 20 21
f 208 21 206
f 209 35 38
f 209 207 35
f 210 20 208
f 210 18 20
f 211 209 38
f 212 18 210
f 212 14 16
f 212 16 18
f 213 38 39
f 213 211 38
f 214 14 212
f 214 10 12
f 214 12 14
f 215 39 41
f 215 213 39
f 216 10 214
f 216 5 8
f 216 8 10
f 217 215 41
f 218 5 216
f 218 3 5
f 219 41 43
f 219 217 41
f 220 219 43
f 46 221 220
f 46 220 43
f 47 222 221
f 47 221 46
f 49 223 222
f 49 222 47
f 52 224 223
f 52 223 49
f 54 224 52
f 225 3 218
f 225 218 226
f 225 4 3
f 227 122 124
f 227 124 4
f 227 4 225
f 228 225 226
f 229 122 227
f 229 118 120
f 229 120 122
f 230 226 231
f 230 231 232
f 230 228 226
f 233 118 229
f 233 114 116
f 233 116 118
f 234 230 232
f 235 111 114
f 235 114 233
f 236 232 237
f 236 234 232
f 56 238 224
f 56 224 54
f 239 111 235
f 239 109 111
f 240 237 241
f 240 241 242
f 240 236 237
f 243 109 239
f 243 107 109
f 244 240 242
f 245 105 107
f 245 107 243
f 246 244 242
f 246 242 247
f 248 105 245
f 249 247 250
f 249 246 247
f 251 250 252
f 251 249 250
f 58 253 238
f 58 238 56
f 103 105 248
f 103 248 254
f 103 254 255
f 60 253 58
f 101 103 255
f 101 255 256
f 62 252 253
f 62 253 60
f 99 101 256
f 99 256 257
f 64 252 62
f 97 99 257
f 97 257 258
f 97 258 259
f 66 251 252
f 66 252 64
f 95 97 259
f 95 259 260
f 68 251 66
f 93 95 260
f 93 260 261
f 93 261 262
f 70 251 68
f 70 263 251
f 91 93 262
f 91 262 264
f 72 263 70
f 89 91 264
f 89 264 265
f 89 265 266
f 74 267 263
f 74 263 72
f 87 89 266
f 87 266 268
f 76 269 267
f 76 267 74
f 85 87 268
f 85 268 270
f 78 269 76
f 83 85 270
f 83 270 271
f 80 272 269
f 80 269 78
f 82 83 271
f 82 272 80
f 82 271 272
f 149 210 208
f 148 149 208
f 149 212 210
f 149 150 212
f 150 214 212
f 150 175 214
f 175 216 214
f 175 181 216
f 181 218 216
f 181 177 218
f 226 218 177
f 226 177 172
f 231 226 172
f 231 172 171
f 232 231 171
f 232 171 168
f 237 232 168
f 237 168 165
f 237 165 162
f 241 237 162
f 242 241 162
f 242 162 157
f 247 242 157
f 247 157 156
f 250 247 156
f 250 156 152
f 252 250 152
f 252 152 143
f 143 253 252
f 143 141 253
f 141 238 253
f 141 139 238
f 139 224 238
f 139 137 224
f 137 223 224
f 137 135 223
f 133 222 223
f 133 223 135
f 163 272 271
f 163 271 166
f 133 221 222
f 133 131 221
f 131 220 221
f 131 129 220
f 129 219 220
f 129 127 219
f 127 217 219
f 127 126 217
f 215 217 126
f 215 126 125
f 213 215 125
f 213 125 128
f 211 213 128
f 211 128 130
f 209 211 130
f 209 130 132
f 207 209 132
f 207 132 134
f 205 207 134
f 205 134 136
f 203 205 136
f 203 136 138
f 201 203 138
f 201 138 140
f 199 201 140
f 199 140 142
f 142 200 199
f 142 144 200
f 144 202 200
f 144 145 202
f 145 204 202
f 145 146 204
f 146 206 204
f 146 147 206
f 148 208 206
f 147 148 206
f 198 243 239
f 198 196 243
f 196 245 243
f 196 195 245
f 195 248 245
f 195 193 248
f 193 254 248
f 193 192 254
f 192 255 254
f 192 191 255
f 256 255 191
f 256 191 189
f 257 256 189
f 257 189 188
f 258 257 188
f 258 188 187
f 259 258 187
f 259 187 185
f 259 185 184
f 260 259 184
f 261 260 184
f 261 184 183
f 262 261 183
f 262 183 182
f 264 262 182
f 264 182 180
f 265 264 180
f 265 180 179
f 179 266 265
f 179 178 266
f 178 268 266
f 178 173 268
f 173 270 268
f 173 169 270
f 169 271 270
f 169 166 271
f 163 269 272
f 163 160 269
f 160 267 269
f 160 158 267
f 158 263 267
f 158 154 263
f 154 251 263
f 154 151 251
f 249 251 151
f 249 151 153
f 246 249 153
f 246 153 155
f 244 246 155
f 244 155 159
f 240 244 159
f 240 159 161
f 240 161 164
f 236 240 164
f 234 236 164
f 234 164 167
f 230 234 167
f 230 167 170
f 228 230 170
f 228 170 174
f 225 228 174
f 225 174 176
f 176 227 225
f 176 186 227
f 186 229 227
f 186 190 229
f 190 233 229
f 190 194 233
f 194 235 233
f 194 197 235
f 197 239 235
f 197 198 239
# 548 faces, 0 coords texture

# End of File
